PathFileType	4	(X/Y/Z)	\\147.46.242.158\로컬 디스크 (e)\MOCAP Data\Iguana Capture\iguana\Project 2\Capture day 6 after broken\Session 1\Take06.trc
DataRate	CameraRate	NumFrames	NumMarkers	Units	OrigDataRate	OrigDataStartFrame	OrigNumFrames
120.0	120.0	5	23	mm	120.0	177	8064
Frame#	Time	ana:head1			ana:head2			ana:bone1			ana:bone2			ana:bone3			ana:tail1			ana:tail2			ana:tail3			ana:tail4			ana:Rforefoot1			ana:Rforefoot2			ana:Rforefoot3			ana:Lforefoot1			ana:Lforefoot2			ana:Lforefoot3			ana:RhindLeg1			ana:RhindLeg2			ana:RhindLeg3			ana:RhindLeg4			ana:LhindLeg1			ana:LhindLeg2			ana:LhindLeg3			ana:LhindLeg4			
		X1	Y1	Z1	X2	Y2	Z2	X3	Y3	Z3	X4	Y4	Z4	X5	Y5	Z5	X6	Y6	Z6	X7	Y7	Z7	X8	Y8	Z8	X9	Y9	Z9	X10	Y10	Z10	X11	Y11	Z11	X12	Y12	Z12	X13	Y13	Z13	X14	Y14	Z14	X15	Y15	Z15	X16	Y16	Z16	X17	Y17	Z17	X18	Y18	Z18	X19	Y19	Z19	X20	Y20	Z20	X21	Y21	Z21	X22	Y22	Z22	X23	Y23	Z23	

6132	51.092	131.67480	-477.91095	69.88761	141.81946	-476.53424	70.86257	162.30258	-469.64926	61.85057	187.13531	-458.08450	58.53201	214.10225	-440.27560	48.95820	239.06654	-421.33261	49.31071	276.86676	-415.19025	59.76525	309.00607	-430.88492	72.84603	328.85773	-453.94858	86.00243	151.26701	-463.90323	40.71263	155.67792	-457.62036	26.63449	152.13622	-457.55670	8.69249	159.29430	-484.46237	39.42348	166.30800	-491.27695	28.03055	161.59932	-497.91415	12.83174	208.20137	-433.14081	38.52711	195.01410	-428.40237	27.61156	205.25935	-418.73822	16.32338	204.36017	-418.84326	4.52533	224.13177	-447.16330	40.57660	235.70258	-456.08554	30.02037	244.28879	-442.98541	16.52872	246.31520	-451.44150	7.18653	
6133	51.100	131.39548	-476.98209	69.89010	141.53008	-475.77692	70.84949	161.99051	-469.11606	61.88740	186.91385	-457.35849	58.71511	214.38315	-439.87476	48.99771	239.65260	-421.67023	49.40119	277.57114	-415.98001	59.45104	309.73633	-432.02963	72.03486	329.61667	-455.18570	84.92403	151.10692	-463.37506	40.73033	155.76311	-457.26300	26.56105	152.16310	-457.47543	8.64789	159.06221	-483.81699	39.49173	165.99696	-490.72406	28.10827	161.51775	-497.20392	12.63896	208.40944	-432.85477	38.59927	195.80746	-427.88760	27.58343	210.57542	-419.72586	13.07095	204.67259	-419.83191	3.89173	224.12755	-447.01559	40.76584	235.57997	-455.95309	29.98647	244.29976	-442.96295	16.48797	246.30830	-451.44208	7.17546	
6134	51.108	131.15700	-476.15845	69.93655	141.16841	-474.81485	70.81004	161.69675	-468.68942	62.06583	186.77182	-456.87924	58.68848	214.67944	-439.63049	48.98174	240.38622	-422.08203	49.29637	278.20477	-416.98175	59.23265	310.25348	-433.52008	71.81603	330.10910	-456.54294	84.23533	150.75163	-462.74478	41.04922	155.70076	-456.92477	26.55728	152.21429	-457.35748	8.59473	158.75972	-483.30469	39.59080	165.55920	-490.20746	28.22241	161.29927	-496.79367	12.78794	208.61578	-432.80499	38.82193	197.67796	-427.40082	27.04242	212.40677	-420.24988	11.67906	204.57356	-420.14093	3.80067	224.14636	-447.06265	40.91056	235.48294	-455.87100	29.92308	244.28970	-443.00223	16.52077	246.32243	-451.50958	7.18749	
6135	51.117	130.91092	-475.53549	69.97111	140.94734	-474.17444	70.95258	161.56728	-468.01892	62.18834	186.67931	-456.49164	58.93332	214.77905	-439.77795	49.15482	240.95454	-422.52994	49.24688	278.79602	-418.13202	59.07950	310.60129	-435.15268	71.78337	330.20938	-458.34714	84.37418	150.45627	-462.20654	41.27224	155.46758	-456.49741	26.63591	152.20802	-457.31039	8.63144	158.43636	-482.95502	39.73573	165.17027	-489.76660	28.34158	160.96147	-496.70203	13.17944	208.70912	-432.81436	39.18845	198.30862	-427.38376	27.30701	212.04201	-420.75558	11.75454	204.29013	-420.06787	3.99595	224.18578	-447.14984	41.02557	235.20798	-455.64322	29.61916	244.27148	-443.13620	16.64329	246.32451	-451.58255	7.22104	
6136	51.125	130.70332	-475.25467	70.40562	140.82117	-473.86099	71.21535	161.36501	-467.41357	62.20201	186.55908	-455.96667	59.47654	214.88046	-439.85553	49.35049	241.46744	-422.94641	49.23830	279.29080	-419.33557	58.99952	310.77258	-436.82806	71.96385	329.98529	-460.05072	84.71409	150.27501	-461.75620	41.57549	155.26042	-456.14667	26.73479	152.17612	-457.27936	8.69556	158.16335	-482.50214	39.90966	164.81377	-489.44901	28.46620	160.74014	-496.50769	13.33921	208.94041	-432.64941	39.26767	198.46011	-427.34122	27.67781	211.86987	-420.94452	11.85387	204.20224	-420.03983	4.06099	224.19617	-447.21625	41.11697	234.82759	-455.32053	29.23706	244.25806	-443.32980	16.79373	246.31398	-451.59766	7.24545	
